<?xml version="1.0" encoding="iso-8859-1"?>
<!-- Generator: Adobe Illustrator 19.0.0, SVG Export Plug-In . SVG Version: 6.00 Build 0)  -->
<svg version="1.1" id="Capa_1" xmlns="http://www.w3.org/2000/svg" xmlns:xlink="http://www.w3.org/1999/xlink" x="0px" y="0px"
	 viewBox="0 0 526.49 526.49" style="enable-background:new 0 0 526.49 526.49;" xml:space="preserve">
<rect x="192.648" y="261.84" style="fill:#F8B64C;" width="141.205" height="124.459"/>
<g style="opacity:0.1;">
	<g>
		<polygon style="fill:#40596B;" points="333.853,261.829 333.811,305.658 281.704,347.802 225.288,302.864 256.339,261.829 		"/>
	</g>
</g>
<g>
	<path style="fill:#F8B64C;" d="M183.016,162.693c1.675,19.147-7.616,35.605-20.747,36.747
		c-13.131,1.152-25.152-13.44-26.827-32.587c-1.675-19.147,7.616-35.605,20.747-36.747
		C169.32,128.954,181.331,143.546,183.016,162.693"/>
	<path style="fill:#F8B64C;" d="M391.069,166.853c-1.675,19.147-13.675,33.739-26.816,32.587
		c-13.131-1.141-22.432-17.6-20.757-36.747c1.675-19.147,13.685-33.739,26.837-32.587
		C383.464,131.248,392.755,147.706,391.069,166.853"/>
</g>
<path style="fill:#FFD15C;" d="M373.747,112.592v36.267c-0.107,7.68-0.544,15.36-1.504,22.933c-1.6,12.587-4.267,24.96-8,36.907
	c-9.067,28.907-24.309,55.573-44.907,78.08l-10.549,11.52c-9.6,10.56-23.264,16.533-37.557,16.533h-16
	c-14.187,0-27.84-6.08-37.451-16.533l-10.443-11.52c-14.613-15.893-26.549-34.027-35.403-53.333
	c-8.96-19.413-14.933-40.213-17.504-61.653c-0.96-7.573-1.493-15.253-1.493-22.933c-0.117-0.853-0.117-1.6-0.117-2.453v-33.173
	c0-10.453,1.504-20.693,4.267-30.293c13.12-46.187,55.691-80.107,106.24-80.107c50.443,0,93.013,33.92,106.133,80.107
	C372.253,92.336,373.747,102.362,373.747,112.592"/>
<rect x="159.411" y="372.901" style="fill:#F2F2F2;" width="207.701" height="153.589"/>
<polygon style="fill:#FF7058;" points="280.211,409.37 294.067,526.49 232.413,526.49 246.397,409.477 231.464,394.554 
	263.251,362.768 295.027,394.554 "/>
<g>
	<path style="fill:#40596B;" d="M518.184,526.448v-87.541c0-40.32-25.312-76.288-63.253-89.92l-121.088-43.488l-0.021,0.32
		l-20.011,220.629H518.184z"/>
	<path style="fill:#40596B;" d="M212.691,526.448l-20.021-220.949L71.56,348.997c-37.941,13.621-63.253,49.6-63.253,89.909v87.541
		L212.691,526.448L212.691,526.448z"/>
</g>
<g>
	<path style="fill:#334A5E;" d="M390.621,526.448l34.08-57.675c0.395-0.64,0.288-1.451-0.245-1.963l-57.771-56.875
		c-0.811-0.8-0.544-2.155,0.48-2.603l55.84-24.885c1.099-0.48,1.28-1.931,0.384-2.699l-89.568-73.931l-20.011,220.629H390.621z"/>
	<path style="fill:#334A5E;" d="M135.88,526.448h76.811L192.68,305.818l-89.568,73.931c-0.896,0.768-0.704,2.219,0.395,2.699
		l55.829,24.885c1.024,0.448,1.291,1.803,0.48,2.603l-57.771,56.875c-0.544,0.512-0.64,1.323-0.245,1.963L135.88,526.448z"/>
</g>
<path style="fill:#40596B;" d="M367.251,196.954c3.413-33.387-2.731-55.488-7.509-66.955c-2.816-6.763-3.531-14.069-2.528-21.333
	c4.373-31.68-12.267-27.403-12.267-27.403c-35.829,17.6-81.632,17.216-81.632,17.216s-45.803,0.384-81.611-17.216
	c0,0-16.661-4.277-12.277,27.403c1.003,7.264,0.277,14.571-2.528,21.333c-4.789,11.467-10.933,33.568-7.52,66.955
	c0,0-69.888-204.363,103.947-196.747C437.149-7.408,367.251,196.954,367.251,196.954"/>
<g>
	<polygon style="fill:#CDD6E0;" points="263.251,362.778 333.853,305.498 323.208,422.97 	"/>
	<polygon style="fill:#CDD6E0;" points="263.251,362.778 192.669,305.498 203.315,422.97 	"/>
</g>
<g>
</g>
<g>
</g>
<g>
</g>
<g>
</g>
<g>
</g>
<g>
</g>
<g>
</g>
<g>
</g>
<g>
</g>
<g>
</g>
<g>
</g>
<g>
</g>
<g>
</g>
<g>
</g>
<g>
</g>
</svg>
